<svg version="1.2" xmlns="http://www.w3.org/2000/svg" viewBox="0 0 256 18" width="256" height="18"><style>.a{fill:none;stroke:#212121;stroke-linecap:square;stroke-width:.6}.b{fill:#fff;stroke:#e0e0e0;stroke-width:.7}.c{fill:#4e4e4e}.d{fill:#212121}.e{opacity:.9;fill:#2a2c83}.f{fill:#097a44}.g{fill:#f46f20}.h{fill:#fff}.i{fill:#f58220}.j{fill:#1a1919}.k{fill:#184977}.l{fill:#fff;stroke:#184977}.m{fill:#0079c1}.n{fill:#007bdb}.o{fill:#e42b00}.p{fill:#1740ce}.q{fill:#c00}.r{fill:#f90}.s{fill:#f16d27}.t{fill:#1a1f71}</style><path class="a" d="m347.8 8.6l-1.7 2.5"/><path class="b" d="m333.7 0.7h-34q-0.4 0-0.7 0.3-0.3 0.3-0.3 0.7v14.6q0 0.4 0.3 0.7 0.3 0.3 0.7 0.3h34q0.4 0 0.7-0.3 0.3-0.3 0.3-0.7v-14.6q0-0.4-0.3-0.7-0.3-0.3-0.7-0.3z"/><path fill-rule="evenodd" class="c" d="m312.5 7.2c0 0.3-0.2 0.6-0.4 0.8q-0.4 0.3-0.9 0.3-0.4 0-0.7-0.2-0.3-0.2-0.4-0.5-0.2-0.4-0.2-0.8v-0.3q0-0.4 0.2-0.8 0.1-0.3 0.5-0.5 0.3-0.2 0.6-0.2 0.5 0 0.9 0.3c0.2 0.2 0.4 0.5 0.4 0.8h-0.6q0-0.3-0.2-0.5-0.2-0.2-0.5-0.2-0.1 0-0.3 0.1-0.1 0.1-0.2 0.2-0.2 0.4-0.2 0.8v0.3q0 0.4 0.2 0.8 0.1 0.1 0.2 0.2 0.1 0 0.3 0 0.3 0.1 0.5-0.1 0.2-0.2 0.2-0.5zm2.3 0.3h-1.2l-0.3 0.7h-0.6l1.2-3.2h0.5l1.2 3.2h-0.6zm-1-0.5h0.9l-0.5-1.3zm4 0.4q0-0.1 0-0.2-0.1-0.1-0.1-0.2-0.3-0.1-0.6-0.2-0.3-0.1-0.6-0.3-0.2-0.1-0.3-0.3-0.1-0.1-0.1-0.4 0-0.2 0.1-0.3 0-0.2 0.2-0.3 0.3-0.2 0.7-0.2 0.4 0 0.7 0.1 0.2 0.1 0.4 0.4 0.1 0.2 0.1 0.5h-0.5q0-0.1-0.1-0.2 0-0.1-0.1-0.2-0.2-0.2-0.5-0.2-0.2 0-0.4 0.1 0 0.1-0.1 0.2 0 0.1 0 0.2 0 0.1 0 0.1 0.1 0.1 0.1 0.2 0.3 0.1 0.6 0.2 0.3 0.1 0.6 0.2 0.2 0.2 0.3 0.4 0.1 0.2 0.1 0.4 0 0.2-0.1 0.4 0 0.1-0.2 0.2-0.4 0.3-0.8 0.3-0.4 0-0.7-0.2-0.2-0.1-0.4-0.3-0.2-0.2-0.2-0.5h0.6q0 0.1 0 0.2 0.1 0.1 0.2 0.2 0.2 0.2 0.5 0.1 0.2 0.1 0.4-0.1 0.1 0 0.1-0.1 0.1-0.1 0.1-0.2zm3.6 0.8h-0.6v-1.4h-1.4v1.5h-0.6v-3.3h0.6v1.4h1.4v-1.4h0.6zm4.3-1.5q0 0.4-0.2 0.8-0.1 0.4-0.4 0.6-0.3 0.2-0.7 0.2-0.4 0-0.7-0.2-0.3-0.2-0.5-0.6-0.2-0.3-0.2-0.8v-0.1q0-0.4 0.2-0.8 0.2-0.4 0.5-0.6 0.2-0.1 0.5-0.2 0.3 0 0.5 0.1 0.3 0 0.5 0.2 0.2 0.2 0.3 0.5 0.2 0.4 0.2 0.8zm-0.6-0.2q0-0.4-0.2-0.8-0.1-0.1-0.2-0.2-0.2-0.1-0.4-0.1-0.1 0-0.3 0.1-0.1 0.1-0.2 0.2-0.2 0.4-0.2 0.8v0.2q-0.1 0.5 0.2 0.8 0.1 0.2 0.2 0.2 0.2 0.1 0.3 0.1 0.2 0 0.4 0 0.1-0.1 0.2-0.3 0.2-0.3 0.2-0.8zm3.7 1.7h-0.6l-1.4-2.2v2.2h-0.6v-3.2h0.6l1.4 2.2v-2.2h0.6zm-18.7 5v-3.3h1q0.4 0 0.8 0.2 0.3 0.2 0.5 0.6 0.2 0.3 0.2 0.8v0.1q0 0.4-0.2 0.8-0.2 0.4-0.5 0.6-0.4 0.1-0.8 0.1zm0.5-2.7v2.3h0.5q0.2 0 0.3-0.1 0.2 0 0.3-0.2 0.3-0.3 0.3-0.8v-0.1q0-0.5-0.3-0.8-0.1-0.2-0.2-0.2-0.2-0.1-0.4-0.1zm4.2 1.3h-1.3v1h1.6v0.4h-2.1v-3.2h2v0.5h-1.5v0.8h1.3zm1.2 1h1.5v0.5h-2v-3.3h0.6zm2.4 0.5h-0.5v-3.3h0.5zm1.8-0.6l0.9-2.6h0.6l-1.2 3.2h-0.5l-1.2-3.2h0.6zm3.7-0.7h-1.3v1h1.5v0.4h-2.1v-3.2h2.1v0.4h-1.5v0.9h1.3zm1.9 0.2h-0.7v1.2h-0.5v-3.2h1.1q0.5 0 0.9 0.2 0.1 0.2 0.2 0.4 0.1 0.2 0.1 0.4 0 0.3-0.2 0.5-0.2 0.2-0.4 0.3l0.7 1.4h-0.6zm-0.6-0.5h0.5q0.3 0 0.5-0.1 0.1-0.1 0.1-0.2 0-0.1 0-0.2 0-0.1 0-0.2 0-0.1-0.1-0.2-0.1-0.1-0.2-0.1-0.1-0.1-0.2-0.1h-0.6zm3.2 0l0.7-1.5h0.6l-1.1 2v1.2h-0.5v-1.1l-1.1-2h0.6z"/><path class="d" d="m303.4 8.1l-0.1 0.5h2.6c-0.1 0.3-0.3 0.6-0.5 0.8-0.5 0.3-1 0.4-1.5 0.4h-0.5v0.5q0.3 0 0.6 0.2 0.4 0.3 0.6 0.6l1.8 2.4h1.1l-2.1-2.7q-0.2-0.3-0.5-0.6c0.4 0 0.9-0.3 1.3-0.6 0.3-0.2 0.4-0.6 0.5-1h1.1l0.2-0.5h-1.3q-0.1-0.4-0.2-0.7-0.2-0.3-0.5-0.5h1.8l0.2-0.5h-4.6l-0.1 0.5h0.9c0.4-0.1 0.8 0.1 1.2 0.3 0.2 0.3 0.4 0.6 0.4 0.9z"/><path class="b" d="m292.3 0.7h-34q-0.4 0-0.7 0.3-0.3 0.3-0.3 0.7v14.6q0 0.4 0.3 0.7 0.3 0.3 0.7 0.3h34q0.4 0 0.7-0.3 0.3-0.3 0.3-0.7v-14.6q0-0.4-0.3-0.7-0.3-0.3-0.7-0.3z"/><path fill-rule="evenodd" class="c" d="m272.9 8h-0.6l-1.4-2.3v2.3h-0.6v-3.2h0.6l1.4 2.3v-2.3h0.6zm2.5-1.4h-1.3v1h1.5v0.4h-2.1v-3.2h2.1v0.4h-1.5v0.9h1.3zm3-1.3h-1v2.8h-0.6v-2.8h-1v-0.4h2.6zm-8.1 7.7v-3.2h1.1q0.5 0 0.8 0.2 0.2 0.1 0.3 0.3 0 0.2 0 0.4 0 0.2-0.1 0.4-0.1 0.2-0.3 0.2 0.2 0.1 0.4 0.3 0.1 0.2 0.1 0.5 0 0.2-0.1 0.4 0 0.1-0.2 0.3-0.4 0.2-0.8 0.2zm0.5-1.4v1h0.7q0.2 0 0.4-0.2 0 0 0.1-0.1 0-0.1 0-0.2 0-0.1 0-0.2 0-0.1-0.1-0.2-0.1-0.1-0.2-0.1-0.1 0-0.2 0zm0-0.4h0.6q0.2 0 0.4-0.2 0 0 0.1-0.1 0-0.1 0-0.2 0-0.1 0-0.2-0.1-0.1-0.1-0.1-0.2-0.2-0.5-0.1h-0.5zm4.1 1.1h-1.2l-0.3 0.7h-0.5l1.2-3.2h0.5l1.1 3.2h-0.6zm-1-0.4h0.9l-0.5-1.4zm4.8 1.2h-0.6l-1.4-2.3v2.3h-0.5v-3.2h0.5l1.5 2.3v-2.3h0.5zm1.6-1.4l-0.4 0.4v1h-0.5v-3.2h0.5v1.5l0.3-0.4 1-1.1h0.6l-1.2 1.4 1.3 1.8h-0.7zm2.6 1.4h-0.6v-3.2h0.6zm3.2 0h-0.6l-1.4-2.3v2.3h-0.6v-3.2h0.6l1.4 2.3v-2.3h0.6zm3.1-0.4q-0.2 0.2-0.5 0.3-0.3 0.2-0.7 0.1-0.4 0-0.7-0.1-0.3-0.2-0.5-0.6-0.2-0.3-0.2-0.8v-0.2c0-0.4 0.1-0.8 0.4-1.1q0.2-0.2 0.4-0.4 0.3-0.1 0.6 0 0.5-0.1 0.8 0.2c0.3 0.2 0.4 0.5 0.4 0.8h-0.5q0-0.1-0.1-0.3 0-0.1-0.1-0.2-0.1 0-0.3-0.1-0.1 0-0.2 0-0.2 0-0.3 0.1-0.2 0-0.3 0.2-0.2 0.3-0.2 0.8v0.2q0 0.4 0.3 0.8 0.1 0.2 0.2 0.2 0.2 0.1 0.4 0.1 0.1 0 0.3 0 0.1-0.1 0.3-0.2v-0.6h-0.7v-0.4h1.2z"/><path fill-rule="evenodd" d="m263.8 4q0.4 0 0.7 0.3 0.3 0.3 0.3 0.7v1c0.6 0.1 1.2 0.3 1.6 0.8 0.4 0.5 0.6 1.1 0.6 1.7v2.6q0 0.5-0.2 0.9-0.2 0.5-0.5 0.8-0.3 0.3-0.8 0.5-0.4 0.2-0.9 0.2-0.5 0-0.9-0.2-0.5-0.2-0.8-0.5-0.4-0.3-0.6-0.8-0.1-0.4-0.1-0.9v-2.6c0-0.6 0.2-1.2 0.6-1.7 0.4-0.4 0.9-0.7 1.6-0.8v-1q0-0.1 0-0.2-0.1-0.1-0.2-0.2 0-0.1-0.1-0.1-0.1 0-0.2 0-0.1 0-0.2 0.1-0.1 0-0.2 0.1-0.1 0.1-0.1 0.2-0.1 0.1-0.1 0.2v0.2q0 0.4-0.2 0.7-0.3 0.3-0.7 0.3-0.4 0-0.7-0.3-0.2-0.3-0.3-0.7 0-0.1 0-0.1 0.1-0.1 0.1-0.1 0.1 0 0.1 0 0.1 0 0.1 0 0.1 0 0.1 0.1 0 0 0 0.1 0 0.1 0.1 0.2 0 0.1 0.1 0.2 0 0.1 0.1 0.1 0.1 0.1 0.3 0.1 0.1 0 0.2-0.1 0.1 0 0.2-0.1 0-0.1 0.1-0.2 0-0.1 0-0.2v-0.3q0-0.4 0.3-0.7 0.2-0.3 0.6-0.3zm0.8 3q-0.1 0-0.2 0 0 0-0.1 0.1 0 0 0 0.1 0 0 0 0.1v1.2q0 0 0 0.1 0 0.1 0.1 0.1 0 0.1 0.1 0.1 0 0 0.1 0h0.1l0.1-0.1q0.1 0 0.1-0.1 0 0 0-0.1v-1.1q0-0.1 0-0.1 0-0.1-0.1-0.1l-0.1-0.1q0 0-0.1 0z"/><path class="b" d="m251.7 0.7h-30q-0.4 0-0.7 0.3-0.3 0.3-0.3 0.7v14.6q0 0.4 0.3 0.7 0.3 0.3 0.7 0.3h30q0.4 0 0.7-0.3 0.3-0.3 0.3-0.7v-14.6q0-0.4-0.3-0.7-0.3-0.3-0.7-0.3z"/><path fill-rule="evenodd" class="e" d="m225.3 10.6c0 0 0.2-0.6 0.6-2 0.3-1 0.5-2 0.6-2.2l0.1-0.3h1.2c1.4 0 1.6 0 1.8 0.2 0.4 0.2 0.5 0.5 0.4 1-0.1 0.4-0.4 0.8-0.8 1.1-0.1 0-0.2 0.1-0.2 0.1 0 0 0 0.1 0.2 0.2q0.1 0.1 0.1 0.2 0.2 0.4 0 0.8 0 0.3-0.1 0.6v0.3h-0.5q-0.3 0-0.6 0c-0.1-0.1-0.1-0.2 0-0.6 0-0.4 0.1-0.7 0-0.8-0.2-0.1-0.3-0.1-0.7-0.2-0.4 0-0.4 0-0.4 0-0.1 0-0.2 0.3-0.4 1l-0.1 0.6h-0.5q-0.3 0-0.6 0zm3.1-2.6q-0.1 0-0.1 0 0 0 0 0zm0.3-0.5q0-0.1 0-0.2-0.1-0.2-0.8-0.1h-0.4l-0.1 0.2q-0.1 0.3-0.1 0.6c0 0.1 0 0.1 0.1 0.1q0.5 0 0.9 0c0.3-0.1 0.4-0.3 0.4-0.6zm1.5 3.2q-0.2-0.1-0.4-0.4c-0.1-0.2 0-0.8 0.5-2.2 0.1-0.4 0.1-0.6 0.1-0.7 0 0 0.2 0 0.5 0q0.3 0 0.5 0h0.1l-0.1 0.3c-0.2 0.6-0.3 1.4-0.4 1.7 0 0.2 0 0.2 0 0.3 0 0.1 0.4 0.2 0.7 0.1 0.2-0.1 0.3-0.3 0.8-1.9q0-0.2 0.1-0.4l0.1-0.1c0.4 0 1 0 1 0 0 0-0.6 2.2-0.8 3.1v0.1h-1q0-0.1 0-0.2c0.1-0.2 0-0.3-0.4 0q-0.4 0.3-0.8 0.4-0.2 0-0.5 0zm3.4-0.1q0.2-1.2 0.6-2.3l0.6-2.2h1c1.3 0 1.6 0 1.8 0.2q0.3 0.1 0.4 0.3 0.2 0.3 0.2 0.6 0 0.3-0.2 0.5-0.1 0.5-0.5 0.9-0.3 0.3-0.8 0.5-0.3 0-0.7 0.1c-0.9 0-0.9 0-0.9 0.1-0.1 0.2-0.1 0.4-0.2 0.7l-0.2 0.6h-0.6q-0.3 0-0.6 0zm2.8-2.4q0.1 0 0.3-0.1 0.1-0.1 0.2-0.2 0.1-0.2 0.1-0.3 0-0.2 0-0.3c-0.1-0.1-0.2-0.2-0.7-0.2q-0.3 0-0.5 0-0.2 0.5-0.2 1-0.1 0 0 0.1 0.3 0 0.7 0zm1.7 2.5c-0.3-0.2-0.4-0.4-0.3-0.9 0.2-0.7 0.5-0.9 1.8-1.1 0.7-0.1 0.9-0.2 1-0.5 0-0.3-0.2-0.3-0.5-0.3q-0.1 0-0.3 0-0.1 0.1-0.2 0.2l-0.1 0.1h-0.4c-0.4 0-0.6 0-0.6 0q0.1-0.3 0.4-0.5 0.3-0.3 0.6-0.4 0.9-0.2 1.8 0 0.3 0.1 0.4 0.4c0.1 0.1 0 0.2-0.3 1.5-0.1 0.6-0.3 1.2-0.3 1.2v0.1h-1v-0.1c-0.1-0.2-0.1-0.2-0.5 0q-0.4 0.2-0.9 0.2-0.2 0.1-0.5 0zm1.6-0.7q0.2-0.1 0.4-0.3 0.1-0.2 0.1-0.4v-0.1h-0.2q-0.4 0-0.8 0.2-0.1 0.1-0.2 0.2 0 0.1 0 0.2c0 0.1 0 0.2 0.1 0.2q0.3 0.1 0.6 0zm1.7 2c-0.1 0-0.1-0.1 0-0.4 0.1-0.3 0.1-0.4 0.4-0.4q0.4-0.1 0.5-0.3 0.1-1.1 0-2.2-0.1-0.7 0-1.3 0 0 0.6 0h0.5v1q0 0.5 0 1c0 0 0.2-0.3 1.1-1.8l0.1-0.2h0.5q0.2 0 0.5 0c0 0-0.7 1.3-1.5 2.5-1 1.7-1.2 2-1.6 2.1q-0.5 0-1 0z"/><path fill-rule="evenodd" class="f" d="m245.8 11.7l1.4-5.1 1.3 2.6z"/><path fill-rule="evenodd" class="g" d="m244.9 11.7l1.4-5.1 1.4 2.6z"/><path class="h" d="m214.4 1h-28.8c-0.4 0-0.7 0.1-0.9 0.4-0.2 0.2-0.4 0.5-0.4 0.8v13.6c0 0.3 0.2 0.6 0.4 0.8 0.2 0.3 0.5 0.4 0.9 0.4h28.8c0.4 0 0.7-0.1 0.9-0.4 0.2-0.2 0.4-0.5 0.4-0.8v-13.6c0-0.3-0.2-0.6-0.4-0.8-0.2-0.3-0.5-0.4-0.9-0.4z"/><path class="i" d="m195.4 17h19q0.3 0 0.5-0.1 0.3-0.1 0.4-0.3 0.2-0.1 0.3-0.4 0.1-0.2 0.1-0.4v-5.8c0 0-7.1 4.8-20.2 7z"/><path fill-rule="evenodd" class="j" d="m188.2 5.7q0.4 0 0.8 0.1 0.3 0.1 0.6 0.4 0.3 0.2 0.5 0.6 0.1 0.3 0.1 0.7 0 0.4-0.1 0.8-0.2 0.4-0.5 0.6c-0.4 0.3-0.9 0.5-1.4 0.5h-1.1v-3.7zm1.1 2.3q0.2-0.2 0.2-0.5 0-0.2-0.2-0.5-0.1-0.2-0.3-0.4-0.2-0.2-0.4-0.2-0.3-0.1-0.6-0.1h-0.2v2.4h0.2c0.4 0.1 0.8 0 1-0.3q0.2-0.1 0.3-0.4zm1.3-2.3h0.7v3.7h-0.7zm2.5 1.3c0.8 0.3 1.1 0.6 1.1 1.2q0 0.2-0.1 0.4-0.1 0.3-0.3 0.5-0.2 0.1-0.4 0.2-0.3 0.1-0.5 0.1-0.4 0-0.8-0.2-0.3-0.2-0.5-0.5l0.5-0.5q0.1 0.2 0.3 0.4 0.2 0.1 0.5 0.1 0.1 0 0.2 0 0.1-0.1 0.2-0.1 0-0.1 0.1-0.2 0-0.1 0-0.2 0-0.1 0-0.2-0.1-0.1-0.2-0.2-0.2-0.1-0.5-0.2c-0.7-0.2-0.9-0.5-0.9-1 0-0.3 0.1-0.6 0.4-0.7 0.2-0.2 0.5-0.3 0.8-0.3 0.4 0 0.8 0.1 1.1 0.4l-0.4 0.5q-0.1-0.1-0.3-0.2-0.1-0.1-0.3-0.1c-0.3 0-0.6 0.2-0.6 0.4 0 0.2 0.2 0.3 0.6 0.5zm2-0.9c0.3-0.4 0.8-0.6 1.4-0.6q0.4 0 0.9 0.2v0.9q-0.2-0.2-0.5-0.3-0.2-0.1-0.5-0.1-0.2 0-0.4 0.1-0.3 0.1-0.5 0.3-0.1 0.1-0.2 0.4-0.1 0.2-0.1 0.4 0 0.3 0.1 0.5 0.1 0.3 0.3 0.4 0.1 0.2 0.4 0.3 0.2 0.1 0.5 0.1 0.2 0 0.5-0.1 0.2-0.1 0.4-0.3v0.8q-0.5 0.3-1 0.3-0.4 0-0.7-0.2-0.4-0.1-0.7-0.4-0.3-0.2-0.4-0.6-0.2-0.4-0.2-0.8c0.1-0.5 0.3-1 0.7-1.3zm8.3 2l1-2.5h0.8l-1.6 3.8h-0.4l-1.7-3.8h0.9l1 2.5zm2.1-2.5h2.1v0.6h-1.4v0.8h1.3v0.7h-1.3v1h1.4v0.6h-2.1zm5 1.1q0 0.4-0.2 0.7-0.3 0.2-0.7 0.3l1.2 1.5h-0.9l-1-1.4h-0.1v1.4h-0.7v-3.6h1.1c0.8 0 1.3 0.3 1.3 1zm-1.5 0.6q0.7 0 0.7-0.6 0-0.5-0.7-0.5h-0.2v1.1h0.2z"/><path fill-rule="evenodd" class="i" d="m201.7 7.5c0 0.6-0.3 1.1-0.6 1.4-0.4 0.4-0.9 0.6-1.4 0.6-0.6 0-1.1-0.2-1.5-0.6-0.3-0.3-0.5-0.8-0.5-1.4 0-0.5 0.2-1 0.5-1.4 0.4-0.4 0.9-0.6 1.5-0.6 0.5 0 1 0.2 1.4 0.6 0.3 0.4 0.6 0.9 0.6 1.4z"/><path class="b" d="m178.3 0.7h-30q-0.4 0-0.7 0.3-0.3 0.3-0.3 0.7v14.6q0 0.4 0.3 0.7 0.3 0.3 0.7 0.3h30q0.4 0 0.7-0.3 0.3-0.3 0.3-0.7v-14.6q0-0.4-0.3-0.7-0.3-0.3-0.7-0.3z"/><path fill-rule="evenodd" class="k" d="m160.3 4h6.1c1.3 0 2.6 0.5 3.5 1.5 1 0.9 1.5 2.2 1.5 3.5 0 1-0.3 2-0.8 2.8-0.6 0.8-1.4 1.4-2.3 1.8q-0.9 0.4-1.9 0.4h-6.1z"/><path class="l" d="m160.3 13.5c0.9 0 1.8-0.3 2.5-0.8 0.7-0.5 1.3-1.2 1.6-2 0.4-0.8 0.4-1.7 0.3-2.6-0.2-0.9-0.7-1.7-1.3-2.3-0.6-0.6-1.4-1-2.3-1.2-0.9-0.2-1.8-0.1-2.6 0.2-0.8 0.4-1.5 1-2 1.7-0.5 0.7-0.8 1.6-0.8 2.5q0.1 0.9 0.4 1.7 0.4 0.9 1 1.5 0.6 0.6 1.5 1 0.8 0.3 1.7 0.3z"/><path fill-rule="evenodd" class="k" d="m162.3 9q0-0.7-0.4-1.4c-0.3-0.4-0.6-0.7-1.1-0.9v4.5c0.5-0.1 0.8-0.4 1.1-0.8q0.4-0.7 0.4-1.4zm-2.5 2.3v-4.5c-0.5 0.1-0.8 0.4-1.1 0.8-0.3 0.4-0.4 0.9-0.4 1.4 0 0.5 0.1 1 0.4 1.4 0.3 0.4 0.6 0.7 1.1 0.9z"/><path class="b" d="m141.7 0.7h-30q-0.4 0-0.7 0.3-0.3 0.3-0.3 0.7v14.6q0 0.4 0.3 0.7 0.3 0.3 0.7 0.3h30q0.4 0 0.7-0.3 0.3-0.3 0.3-0.7v-14.6q0-0.4-0.3-0.7-0.3-0.3-0.7-0.3z"/><path class="m" d="m128.8 11.7l-0.3-0.3v0.3h-0.9v-0.6q-0.2 0.1-0.4 0.1h-0.3v0.5h-1.4l-0.3-0.3-0.2 0.3h-2.3v-2.2h2.3l0.2 0.3 0.3-0.3h8.4v-7.5h-13.9v5.9l0.5-1.3h0.9l0.3 0.7v-0.7h1.1l0.2 0.5 0.2-0.5h5v0.3q0.3-0.3 0.7-0.3h1.6l0.3 0.7v-0.7h1l0.2 0.4v-0.4h1v2.2h-1l-0.3-0.4v0.4h-1.3l-0.2-0.3h-0.3l-0.2 0.3h-0.8q-0.4 0-0.7-0.2v0.2h-1.4l-0.3-0.3v0.3h-5.3l-0.1-0.3h-0.4l-0.1 0.3h-0.6v7.1h13.9v-4.4q-0.2 0.2-0.5 0.2z"/><path class="m" d="m133.9 9.8l-0.1 0.4-0.8-0.2q0 0-0.1 0 0 0 0 0 0 0 0 0.1 0 0 0 0.1 0.1 0 0.1 0h0.4c0.3 0 0.5 0.2 0.5 0.5q0 0.1 0 0.2 0 0.1-0.1 0.2-0.1 0.1-0.2 0.1-0.1 0-0.2 0h-0.9v-0.3h1q0-0.1 0-0.1 0 0 0-0.1h-0.1-0.4q-0.1 0.1-0.2 0-0.1 0-0.2-0.1-0.1 0-0.1-0.1 0-0.1 0-0.2 0-0.1 0-0.2 0.1-0.1 0.2-0.2 0-0.1 0.1-0.1 0.1 0 0.3 0z"/><path class="b" d="m105 0.7h-30q-0.4 0-0.7 0.3-0.3 0.3-0.3 0.7v14.6q0 0.4 0.3 0.7 0.3 0.3 0.7 0.3h30q0.4 0 0.7-0.3 0.3-0.3 0.3-0.7v-14.6q0-0.4-0.3-0.7-0.3-0.3-0.7-0.3z"/><path class="n" d="m86.5 14c0.9 0 1.9-0.3 2.7-0.8 0.9-0.6 1.5-1.4 1.9-2.3 0.4-0.9 0.5-1.9 0.3-2.9-0.2-0.9-0.7-1.8-1.4-2.5-0.7-0.7-1.6-1.2-2.6-1.4-0.9-0.2-1.9-0.1-2.9 0.3-0.9 0.4-1.6 1-2.2 1.8-0.5 0.8-0.8 1.8-0.8 2.8 0 1.3 0.5 2.6 1.4 3.5 1 1 2.2 1.5 3.6 1.5z"/><path class="o" d="m93.5 14c1 0 2-0.3 2.8-0.9 0.8-0.5 1.4-1.3 1.8-2.2 0.4-0.9 0.5-1.9 0.3-2.9-0.2-1-0.7-1.9-1.4-2.6-0.7-0.6-1.6-1.1-2.6-1.3-0.9-0.2-1.9-0.1-2.8 0.3-1 0.4-1.7 1-2.3 1.8-0.5 0.8-0.8 1.8-0.8 2.8q0 1 0.4 1.9 0.4 1 1.1 1.7 0.7 0.7 1.6 1 0.9 0.4 1.9 0.4z"/><path fill-rule="evenodd" class="p" d="m90 12.6c0.9-1 1.4-2.3 1.5-3.6-0.1-1.3-0.6-2.6-1.5-3.6q-0.7 0.7-1.1 1.6-0.4 1-0.4 2 0 1 0.4 2 0.4 0.9 1.1 1.6z"/><path class="b" d="m68.3 0.7h-30q-0.4 0-0.7 0.3-0.3 0.3-0.3 0.7v14.6q0 0.4 0.3 0.7 0.3 0.3 0.7 0.3h30q0.4 0 0.7-0.3 0.3-0.3 0.3-0.7v-14.6q0-0.4-0.3-0.7-0.3-0.3-0.7-0.3z"/><path class="q" d="m49.8 14c1 0 1.9-0.3 2.8-0.9 0.8-0.5 1.4-1.3 1.8-2.2 0.3-0.9 0.4-1.9 0.2-2.9-0.2-1-0.6-1.9-1.3-2.6-0.7-0.6-1.6-1.1-2.6-1.3-1-0.2-2-0.1-2.9 0.3-0.9 0.4-1.7 1-2.2 1.8-0.6 0.8-0.9 1.8-0.9 2.8q0 1 0.4 1.9 0.4 1 1.1 1.7 0.7 0.7 1.7 1 0.9 0.4 1.9 0.4z"/><path class="r" d="m56.9 14c1 0 1.9-0.3 2.7-0.8 0.9-0.6 1.5-1.4 1.9-2.3 0.4-0.9 0.5-1.9 0.3-2.9-0.2-0.9-0.7-1.8-1.4-2.5-0.7-0.7-1.6-1.2-2.6-1.4-0.9-0.2-1.9-0.1-2.8 0.3-1 0.4-1.7 1-2.3 1.8-0.5 0.8-0.8 1.8-0.8 2.8 0 1.3 0.5 2.6 1.4 3.5 1 1 2.2 1.5 3.6 1.5z"/><path fill-rule="evenodd" class="s" d="m53.3 12.6c0.9-1 1.5-2.3 1.5-3.6 0-1.3-0.6-2.6-1.5-3.6q-0.7 0.7-1.1 1.6-0.4 1-0.4 2 0 1 0.4 1.9 0.4 1 1.1 1.7z"/><path class="b" d="m31.7 0.7h-30q-0.4 0-0.7 0.3-0.3 0.3-0.3 0.7v14.6q0 0.4 0.3 0.7 0.3 0.3 0.7 0.3h30q0.4 0 0.7-0.3 0.3-0.3 0.3-0.7v-14.6q0-0.4-0.3-0.7-0.3-0.3-0.7-0.3z"/><path fill-rule="evenodd" class="t" d="m14 5.8l-2.8 6.6h-1.8l-1.3-5.3q0-0.2-0.2-0.3-0.1-0.2-0.2-0.3-0.8-0.3-1.7-0.5v-0.2h2.9q0.3 0 0.5 0.2 0.3 0.2 0.3 0.5l0.7 3.8 1.8-4.5zm7 4.5c0 1.3-1.2 2.2-2.9 2.2q-1 0-1.9-0.4l0.3-1.4q0.8 0.4 1.7 0.4c0.5 0 1-0.2 1-0.6 0-0.3-0.2-0.5-0.9-0.8-0.6-0.4-1.5-0.9-1.5-1.8 0.1-1.3 1.2-2.2 2.9-2.2q0.8 0 1.6 0.3l-0.3 1.4q-0.8-0.4-1.7-0.3c-0.5 0-0.7 0.3-0.7 0.5 0 0.8 2.4 0.9 2.4 2.6zm4.2 1.1h-2.2l-0.3 1h-1.8l2.5-6.1q0.1-0.2 0.3-0.3 0.2-0.1 0.4-0.1h1.5l1.4 6.5h-1.6zm-0.3-1.3l-0.5-2.5-0.9 2.5zm-8.5-4.2l-1.4 6.5h-1.7l1.4-6.5z"/></svg>